<?xml version="1.0" encoding="UTF-8"?>
<svg version="1.1" xmlns="http://www.w3.org/2000/svg" width="1734" height="403">
<path d="M0 0 C0.94992828 0.00087616 1.89985657 0.00175232 2.87857056 0.00265503 C17.60966708 0.04742569 31.71633196 0.77022575 46.0625 4.375 C47.01962891 4.60574219 47.97675781 4.83648438 48.96289062 5.07421875 C83.12842929 13.50960321 114.28980042 30.46647505 139.58398438 54.94775391 C141.12094409 56.43141746 142.67751765 57.89272277 144.234375 59.35546875 C181.69878806 95.09369619 201.58724474 146.74062771 202.99609375 197.9453125 C203.88038117 250.38821078 184.99883299 301.30967999 148.8515625 339.48828125 C148.1694873 340.19331787 148.1694873 340.19331787 147.47363281 340.91259766 C145.99683855 342.44304707 144.5422255 343.99301517 143.0859375 345.54296875 C131.91691635 357.24501697 119.02428902 367.20449467 105.0625 375.375 C104.4545459 375.74157715 103.8465918 376.1081543 103.22021484 376.48583984 C85.4846832 387.1340148 66.22656841 394.76222209 46.0625 399.375 C45.27117676 399.56964844 44.47985352 399.76429688 43.66455078 399.96484375 C15.59799931 406.66273008 -17.97055975 406.35461767 -45.9375 399.375 C-46.80133301 399.17132813 -47.66516602 398.96765625 -48.55517578 398.7578125 C-100.38771711 386.31569848 -145.58414471 352.56003661 -173.47338867 307.32836914 C-177.73099265 300.22243599 -181.42098659 292.86985051 -184.9375 285.375 C-185.45957031 284.29476563 -185.98164062 283.21453125 -186.51953125 282.1015625 C-207.5050674 236.36527527 -208.21330878 180.36431615 -191.13769531 133.31274414 C-187.37855044 123.33578516 -183.07608066 113.71654493 -177.9375 104.375 C-177.42582275 103.44445801 -177.42582275 103.44445801 -176.90380859 102.49511719 C-168.81952584 88.01344441 -158.89624928 74.76792437 -147.36474609 62.85351562 C-145.88108254 61.31655591 -144.41977723 59.75998235 -142.95703125 58.203125 C-106.00819155 19.46962611 -52.84781279 -0.11922248 0 0 Z " fill="#762EF3" transform="translate(1513.9375,-0.37499999999999994)"/>
<path d="M0 0 C0.99 0.495 0.99 0.495 2 1 C2 1.99 2 2.98 2 4 C2.59167969 4.27585938 3.18335938 4.55171875 3.79296875 4.8359375 C9.70310857 7.95314399 13.97706569 13.02350447 18.23828125 18.05078125 C20.45468731 20.50307975 22.90134407 22.54079523 25.44921875 24.63671875 C27.59551466 26.52351289 29.21722651 28.77153314 31 31 C32.83356914 32.60636601 34.70240784 34.14960624 36.609375 35.66796875 C37.06828125 36.10753906 37.5271875 36.54710937 38 37 C38 37.66 38 38.32 38 39 C38.66 39 39.32 39 40 39 C41.5078125 40.42578125 41.5078125 40.42578125 43.125 42.3125 C43.66382813 42.92738281 44.20265625 43.54226562 44.7578125 44.17578125 C46 46 46 46 46 49 C46.78375 49.268125 47.5675 49.53625 48.375 49.8125 C51 51 51 51 53 54 C53.99 54.33 54.98 54.66 56 55 C58.6875 57.375 58.6875 57.375 61 60 C61 60.99 61 61.98 61 63 C61.639375 63.12375 62.27875 63.2475 62.9375 63.375 C63.618125 63.58125 64.29875 63.7875 65 64 C65.33 64.66 65.66 65.32 66 66 C66.99 66.33 67.98 66.66 69 67 C69 67.99 69 68.98 69 70 C69.598125 70.061875 70.19625 70.12375 70.8125 70.1875 C73.89578108 71.33271869 74.39440311 73.17414947 76 76 C76.86625 76.721875 77.7325 77.44375 78.625 78.1875 C82.03747186 82.2285851 81.92350379 85.85389148 82 91 C82.02698975 91.63969727 82.05397949 92.27939453 82.08178711 92.93847656 C82.25162268 99.24987648 81.25742607 105.09235404 79.9375 111.25 C79.60250488 112.82056152 79.60250488 112.82056152 79.26074219 114.42285156 C71.30066319 150.28111217 53.99882712 183.10079457 28.42724609 209.52148438 C26.94358254 211.05844409 25.48227723 212.61501765 24.01953125 214.171875 C12.85224922 225.8726874 -0.04010593 235.8306036 -14 244 C-14.6079541 244.36657715 -15.2159082 244.7331543 -15.84228516 245.11083984 C-37.39245796 258.04927411 -60.74650516 266.03566358 -85.4375 270.3125 C-86.42032959 270.48434814 -87.40315918 270.65619629 -88.41577148 270.83325195 C-106.49097519 273.75451241 -106.49097519 273.75451241 -114 270 C-116.49436871 267.82542215 -118.59899955 265.46323998 -120.76171875 262.96484375 C-121.68404297 261.89943359 -121.68404297 261.89943359 -122.625 260.8125 C-123.19476562 260.13832031 -123.76453125 259.46414063 -124.3515625 258.76953125 C-126.07423737 256.78388311 -126.07423737 256.78388311 -129 255 C-129 254.34 -129 253.68 -129 253 C-129.87011719 252.60361328 -129.87011719 252.60361328 -130.7578125 252.19921875 C-137.0759815 248.81998899 -142.91646613 242.86234597 -147 237 C-147 236.34 -147 235.68 -147 235 C-147.61875 234.7525 -148.2375 234.505 -148.875 234.25 C-151.40358627 232.76259631 -151.71839004 231.56321991 -153 229 C-154.32873992 228.32422455 -155.66285461 227.65898742 -157 227 C-161.7423524 223.36163652 -165.83270819 219.2445004 -169.6171875 214.6328125 C-171.16870537 212.74902965 -171.16870537 212.74902965 -173.8125 210.25 C-176 208 -176 208 -177 205 C-178.31416849 204.29630731 -179.65040851 203.63310744 -181 203 C-182.62817383 201.58300781 -182.62817383 201.58300781 -184.20703125 199.953125 C-184.79419922 199.355 -185.38136719 198.756875 -185.98632812 198.140625 C-186.8902832 197.20476562 -186.8902832 197.20476562 -187.8125 196.25 C-191.94448436 191.99635416 -196.08758452 187.96307463 -200.72143555 184.25292969 C-201.14336182 183.83946289 -201.56528809 183.42599609 -202 183 C-202 182.34 -202 181.68 -202 181 C-202.66 181 -203.32 181 -204 181 C-205.39477539 179.57958984 -205.39477539 179.57958984 -207.03515625 177.5859375 C-211.98450373 171.76272286 -217.47360524 166.51266052 -222.94335938 161.18359375 C-223.72388672 160.41402344 -224.50441406 159.64445313 -225.30859375 158.8515625 C-226.01814209 158.15885254 -226.72769043 157.46614258 -227.45874023 156.75244141 C-229 155 -229 155 -229 153 C-229.99 152.67 -230.98 152.34 -232 152 C-131.84848485 152 -131.84848485 152 -127 156 C-121.93877611 157.68707463 -116.55566185 158.15296145 -111.6015625 155.91796875 C-109.24623794 154.44270228 -106.97110759 152.97110759 -105 151 C-101.88059815 150.89589735 -98.78260543 150.85639212 -95.66259766 150.8581543 C-94.19194099 150.85294266 -94.19194099 150.85294266 -92.6915741 150.84762573 C-90.55478105 150.84025385 -88.41798028 150.83491614 -86.28117752 150.83133507 C-82.90291301 150.82419519 -79.52479593 150.80854786 -76.14657593 150.78999329 C-66.53881847 150.73740311 -56.93114051 150.68952034 -47.32324219 150.67407227 C-41.4540156 150.66401447 -35.58515728 150.63474488 -29.7160759 150.59275246 C-27.47454992 150.58040482 -25.232972 150.57532802 -22.99141312 150.57755089 C-19.85927009 150.57989268 -16.72819109 150.55782228 -13.59619141 150.5300293 C-12.66412369 150.53663071 -11.73205597 150.54323212 -10.77174377 150.55003357 C-9.91923538 150.53756592 -9.06672699 150.52509827 -8.18838501 150.51225281 C-7.44764048 150.50986445 -6.70689594 150.5074761 -5.94370461 150.50501537 C-3.85521722 150.13036718 -3.85521722 150.13036718 -2.2631464 148.34446812 C-0.66580621 145.37971823 -0.61572512 143.34080897 -0.60127258 139.97625732 C-0.58873444 138.74229218 -0.57619629 137.50832703 -0.5632782 136.23696899 C-0.56445222 134.87249729 -0.56591136 133.50802581 -0.56762695 132.14355469 C-0.55860939 130.70455076 -0.54828219 129.26555452 -0.53674316 127.8265686 C-0.50914604 123.92195108 -0.49988501 120.01747919 -0.49388909 116.11277676 C-0.48451245 112.03144487 -0.45830966 107.95022208 -0.43388367 103.86895752 C-0.39019539 96.14134828 -0.36166276 88.41376017 -0.33856028 80.68606496 C-0.31152107 71.88801163 -0.26760879 63.09006791 -0.22227156 54.2920928 C-0.12939196 36.19478638 -0.05772642 18.09745097 0 0 Z " fill="#421D82" transform="translate(1633,131)"/>
<path d="M0 0 C0.68692995 -0.00538554 1.3738599 -0.01077108 2.08160591 -0.01631981 C4.37083258 -0.03056503 6.65947818 -0.02350455 8.94873047 -0.01637268 C10.59503645 -0.02207801 12.24133847 -0.02904291 13.88763428 -0.03717041 C18.35040659 -0.05509751 22.81298223 -0.05393447 27.27577972 -0.04822803 C31.00352199 -0.04513598 34.7312265 -0.05122869 38.45896339 -0.05726677 C47.25311047 -0.07130848 56.04716039 -0.06975323 64.84130859 -0.05836487 C73.91070835 -0.04687953 82.97981254 -0.06096707 92.04917336 -0.08776134 C99.84042759 -0.10991689 107.63158904 -0.11655618 115.42287254 -0.11068493 C120.0743251 -0.10731434 124.72558812 -0.1097374 129.37701416 -0.12693596 C133.75035781 -0.14240109 138.12326334 -0.13845452 142.49658966 -0.11963081 C144.10018073 -0.11594394 145.70380423 -0.11905632 147.30736542 -0.1295166 C149.4993601 -0.14272222 151.6899033 -0.13118516 153.88183594 -0.11352539 C155.10740204 -0.11331611 156.33296814 -0.11310682 157.59567261 -0.1128912 C162.39696641 0.60555824 165.46749889 2.85333085 168.78881836 6.31199646 C171.07269102 10.42674225 170.40983394 15.17023597 170.37841797 19.76268005 C170.39839844 20.79135193 170.41837891 21.8200238 170.43896484 22.87986755 C170.43513776 28.81950641 170.23515702 32.88623147 165.94091797 37.38768005 C160.25529286 41.25761341 154.58426676 40.79148126 147.96875 40.72825623 C146.76818466 40.72869431 145.56761932 40.72913239 144.33067322 40.72958374 C141.05205245 40.72785631 137.77381971 40.7128486 134.49527597 40.69186187 C131.06399642 40.67306182 127.63270861 40.67134202 124.2013855 40.66778564 C117.70976546 40.65847491 111.21829765 40.63387442 104.72674453 40.60373718 C97.33378088 40.57016279 89.94080982 40.55369954 82.54778886 40.53865087 C67.34539991 40.50732387 52.14320859 40.4523241 36.94091797 40.38768005 C36.94091797 56.22768005 36.94091797 72.06768005 36.94091797 88.38768005 C47.86378906 88.30066833 47.86378906 88.30066833 59.00732422 88.2118988 C63.62388299 88.18634744 68.24035443 88.16227754 72.85693359 88.14353943 C80.18272027 88.11366398 87.50819411 88.07834249 94.83374023 88.01048279 C100.74059919 87.95610818 106.64712263 87.92624759 112.55421257 87.91329384 C114.80646991 87.90406388 117.05870915 87.88603978 119.31082344 87.85902977 C122.46860385 87.82266825 125.6250025 87.81773785 128.78295898 87.8200531 C129.71156738 87.80207672 130.64017578 87.78410034 131.59692383 87.76557922 C137.98104066 87.8161401 141.13054951 89.15174403 145.94091797 93.38768005 C148.83047634 97.83315447 148.23556534 103.25323266 148.19091797 108.38768005 C148.19865234 109.27713318 148.20638672 110.1665863 148.21435547 111.08299255 C148.20083081 115.61375414 148.09728535 119.28031361 145.94091797 123.38768005 C145.28091797 123.38768005 144.62091797 123.38768005 143.94091797 123.38768005 C143.94091797 124.04768005 143.94091797 124.70768005 143.94091797 125.38768005 C138.5429206 128.74437804 134.13496732 128.80009551 127.98828125 128.72825623 C127.00229446 128.72869431 126.01630768 128.72913239 125.0004425 128.72958374 C121.75383439 128.7275001 118.50774795 128.70418864 115.26123047 128.6806488 C113.00536379 128.67505135 110.74949346 128.67078196 108.49362183 128.66778564 C102.56536739 128.6563487 96.63733456 128.62689115 90.70916748 128.59367371 C84.6562398 128.56294818 78.60327621 128.54927499 72.55029297 128.53416443 C60.68040411 128.50202056 48.81067949 128.45083791 36.94091797 128.38768005 C36.94535919 129.11351288 36.94980042 129.8393457 36.95437622 130.58717346 C36.99452761 137.44300613 37.02494028 144.29882111 37.04454231 151.15474129 C37.05495886 154.67905335 37.06907889 158.20326787 37.09179688 161.7275238 C37.11777757 165.78352267 37.12740835 169.8394198 37.13623047 173.89549255 C37.14655304 175.15507782 37.15687561 176.41466309 37.16751099 177.7124176 C37.16773758 179.48357437 37.16773758 179.48357437 37.16796875 181.29051208 C37.17240997 182.32531708 37.1768512 183.36012207 37.181427 184.42628479 C36.71638932 190.15230836 34.87308082 194.21720431 30.94091797 198.38768005 C27.24530343 199.61955157 23.79932072 199.56916705 19.94873047 199.59080505 C19.16577606 199.59650513 18.38282166 199.6022052 17.57614136 199.608078 C15.92024076 199.6175185 14.26432146 199.62405821 12.60839844 199.62791443 C10.08218431 199.63761757 7.55678488 199.66864787 5.03076172 199.70018005 C3.42008945 199.70671081 1.80941139 199.711961 0.19873047 199.71580505 C-0.92962723 199.73432526 -0.92962723 199.73432526 -2.08078003 199.7532196 C-6.60539715 199.73411297 -9.44710692 199.14953087 -13.05908203 196.38768005 C-17.2875404 191.70617257 -17.18606048 187.33812147 -17.20625305 181.19619751 C-17.20992974 180.47084645 -17.21360643 179.74549539 -17.21739453 178.998164 C-17.22840974 176.56704171 -17.2322715 174.13596221 -17.23608398 171.70481873 C-17.24235017 169.96191269 -17.24899711 168.21900798 -17.2559967 166.47610474 C-17.2770176 160.75262886 -17.28739591 155.02915276 -17.29736328 149.3056488 C-17.3014113 147.3345469 -17.30552824 145.36344514 -17.30971336 143.39234352 C-17.32875916 134.13336164 -17.34299258 124.87438771 -17.35132533 115.61539 C-17.36110174 104.92902093 -17.38743439 94.24285876 -17.42782623 83.5565626 C-17.45798188 75.29486801 -17.47279361 67.03323276 -17.47610635 58.7714842 C-17.47845707 53.83769727 -17.48742083 48.90413155 -17.51256752 43.97040367 C-17.53584419 39.32873362 -17.54008312 34.68743052 -17.52980614 30.04571724 C-17.5293106 28.34416865 -17.53563635 26.64260201 -17.54936218 24.9411087 C-17.56708399 22.61367197 -17.55997475 20.28755187 -17.54682922 17.96011353 C-17.54921758 16.65912814 -17.55160593 15.35814276 -17.55406666 14.01773357 C-16.91974953 9.36586158 -15.83221066 7.18951136 -13.05908203 3.38768005 C-8.71424282 0.42811416 -5.18956283 0.0102892 0 0 Z " fill="#000000" transform="translate(34.05908203125,73.61231994628906)"/>
<path d="M0 0 C1.11640869 -0.0236412 1.11640869 -0.0236412 2.25537109 -0.04776001 C3.04508301 -0.03763885 3.83479492 -0.0275177 4.6484375 -0.01708984 C5.4729541 -0.02187347 6.2974707 -0.0266571 7.14697266 -0.03158569 C8.88511063 -0.03497857 10.62331294 -0.02581887 12.36132812 -0.00488281 C15.01577575 0.02189536 17.66599575 -0.0046473 20.3203125 -0.03662109 C22.01303013 -0.03331688 23.70574513 -0.0269104 25.3984375 -0.01708984 C26.58300537 -0.03227158 26.58300537 -0.03227158 27.79150391 -0.04776001 C31.95346417 0.04037416 33.59186034 0.31472338 37 2.93847656 C39.72059722 6.58016401 40.15075663 9.39557399 40.13696289 13.86474609 C40.13688736 14.6852948 40.13681183 15.50584351 40.13673401 16.35125732 C40.13157272 17.22743713 40.12641144 18.10361694 40.12109375 19.00634766 C40.1196788 19.91072571 40.11826385 20.81510376 40.11680603 21.74688721 C40.11121661 24.63028292 40.09866603 27.51360048 40.0859375 30.39697266 C40.08092113 32.35400278 40.07635846 34.31103413 40.07226562 36.26806641 C40.06125063 41.06106519 40.04399324 45.85400568 40.0234375 50.64697266 C40.62293213 50.50074463 41.22242676 50.3545166 41.84008789 50.20385742 C44.58788961 49.53565947 47.3368914 48.87253162 50.0859375 48.20947266 C51.02888672 47.979375 51.97183594 47.74927734 52.94335938 47.51220703 C76.2277305 41.91422234 100.77802946 42.88832322 122.0234375 54.64697266 C138.52696106 65.37972771 147.78857555 81.59667094 152.2734375 100.45947266 C156.34676167 121.91072215 155.15278336 144.66627857 146.0234375 164.64697266 C145.65476562 165.45521484 145.28609375 166.26345703 144.90625 167.09619141 C137.03610548 182.64651144 122.49357886 192.18150075 106.5 197.90869141 C93.39072143 201.87093403 80.25123682 203.01706523 66.5859375 202.95947266 C65.54753723 202.95673843 65.54753723 202.95673843 64.48815918 202.95394897 C45.0858311 202.86859741 6.04869075 202.6722259 -8.9765625 187.64697266 C-9.08525547 185.30560484 -9.12880139 182.99328362 -9.13046265 180.65093994 C-9.1348449 179.91040682 -9.13922715 179.16987369 -9.1437422 178.40690017 C-9.15717819 175.90651822 -9.16331979 173.40617155 -9.16943359 170.90576172 C-9.17733084 169.12064452 -9.18559955 167.33552892 -9.19421387 165.55041504 C-9.2204795 159.67115819 -9.23574683 153.79189405 -9.25 147.91259766 C-9.25535797 145.89161931 -9.26073547 143.87064102 -9.26613235 141.84966278 C-9.28776847 133.44456221 -9.30650611 125.03946359 -9.31775475 116.63434219 C-9.33399863 104.57436031 -9.36717873 92.51470042 -9.42415559 80.45483994 C-9.46281844 71.98347407 -9.48238315 63.51219444 -9.48767531 55.04074264 C-9.49133403 49.9772542 -9.50341021 44.91410882 -9.53577805 39.85071564 C-9.56579408 35.08674474 -9.57219368 30.32332561 -9.56039429 25.5592804 C-9.560173 23.81012163 -9.56852331 22.06093775 -9.58604813 20.31186676 C-9.60866984 17.92422336 -9.60047934 15.53859253 -9.58456421 13.15093994 C-9.5984463 12.45803368 -9.61232838 11.76512742 -9.62663114 11.05122399 C-9.56354992 7.21264887 -9.04055252 5.72467541 -6.56420326 2.71765709 C-4.03521254 0.69390565 -3.14093423 0.01925548 0 0 Z M40.0234375 83.64697266 C40.0234375 110.70697266 40.0234375 137.76697266 40.0234375 165.64697266 C48.88037361 168.17752583 56.92146815 168.82746082 66.0859375 168.83447266 C66.93220703 168.84671875 67.77847656 168.85896484 68.65039062 168.87158203 C78.40564583 168.89414623 85.97518376 166.73365425 93.6484375 160.52197266 C104.32924895 147.59256933 105.0198239 129.83932415 103.57836914 113.8046875 C102.31930834 102.59866598 100.00491614 92.17707167 91.0234375 84.64697266 C85.63753711 81.17471211 80.47610763 78.98658687 74.0234375 78.64697266 C72.87875 78.5715625 72.87875 78.5715625 71.7109375 78.49462891 C60.88386387 78.09183599 50.3674407 80.69154317 40.0234375 83.64697266 Z " fill="#000000" transform="translate(397.9765625,73.35302734375)"/>
<path d="M0 0 C0.69744324 0.00182281 1.39488647 0.00364563 2.11346436 0.00552368 C24.58145008 0.10416048 45.90486704 3.82680771 63 19.6875 C78.30369189 36.25719074 77.28557045 58.40397061 77.328125 79.48828125 C77.33236607 80.91496659 77.33236607 80.91496659 77.33669281 82.37047386 C77.35158249 87.39062138 77.36088001 92.41074084 77.36523438 97.4309082 C77.37074617 102.60005291 77.39486001 107.76893785 77.42320633 112.93800068 C77.44184441 116.93320984 77.44703864 120.92835601 77.44857025 124.92360497 C77.45158776 126.82972848 77.4595857 128.73585113 77.47275543 130.64193153 C77.48986266 133.3048662 77.48792591 135.96715923 77.48144531 138.63012695 C77.4906601 139.40897247 77.49987488 140.18781799 77.5093689 140.99026489 C77.47026377 146.13527628 76.54808977 149.74691036 74.125 154.3125 C69.45266379 156.6486681 62.48686549 155.6244196 57.29516602 155.66259766 C55.64528284 155.67914678 53.99547105 155.70642356 52.34594727 155.74462891 C49.96332742 155.79951149 47.58238628 155.8212871 45.19921875 155.8359375 C44.46571701 155.85860687 43.73221527 155.88127625 42.97648621 155.90463257 C39.03067068 155.88842587 37.28898305 155.44025845 34.13989258 152.98681641 C31.74891899 149.8133371 31.67360294 148.19451472 32.125 144.3125 C31.26841797 144.87517578 31.26841797 144.87517578 30.39453125 145.44921875 C9.17782132 158.84036954 -17.12105154 162.05034215 -41.5625 156.8125 C-55.90185079 153.32021123 -69.23585869 146.37325852 -77.6875 134.0625 C-84.38180704 122.81361877 -85.55095394 110.33991806 -83.1875 97.5 C-79.95815048 85.50849933 -73.36041383 77.27431699 -62.859375 70.9453125 C-46.61140464 62.05571615 -29.84663866 60.28340569 -11.64453125 59.99609375 C-10.52809738 59.97531265 -9.41166351 59.95453156 -8.26139832 59.93312073 C-4.73682088 59.86836017 -1.21217665 59.80908627 2.3125 59.75 C4.71940762 59.70674468 7.12630878 59.6631283 9.53320312 59.61914062 C15.39706726 59.51275551 21.26099606 59.41086046 27.125 59.3125 C26.83335228 57.22954409 26.53361442 55.14771987 26.23046875 53.06640625 C26.06442139 51.9069751 25.89837402 50.74754395 25.72729492 49.55297852 C24.66094627 43.81578935 22.84500746 40.63833908 18.125 37 C7.88455041 31.87977521 -6.09887207 31.95915063 -16.875 35.3125 C-22.28328114 37.85290362 -26.55517241 41.63386858 -30.8203125 45.76171875 C-35.25701119 49.11032974 -40.02638154 49.56717292 -45.4453125 49.578125 C-46.67121094 49.58070313 -47.89710937 49.58328125 -49.16015625 49.5859375 C-50.42730469 49.57820313 -51.69445313 49.57046875 -53 49.5625 C-54.91232422 49.57410156 -54.91232422 49.57410156 -56.86328125 49.5859375 C-58.08660156 49.58335937 -59.30992188 49.58078125 -60.5703125 49.578125 C-61.68422363 49.57586914 -62.79813477 49.57361328 -63.94580078 49.57128906 C-66.82853884 49.31660475 -68.47287221 48.88336331 -70.875 47.3125 C-73.59361688 43.16531055 -73.45181486 39.10225374 -72.875 34.3125 C-70.542885 24.48130861 -65.2665439 16.97191333 -56.875 11.3125 C-40.26875474 1.13129011 -18.98447239 -0.10377291 0 0 Z M-31.8125 100.375 C-34.90258945 104.77603649 -35.39805805 107.99474318 -34.875 113.3125 C-32.31951186 119.4548392 -28.87346846 122.63461229 -22.875 125.3125 C-5.82133321 130.03459116 12.48077127 122.34611133 27.125 114.3125 C28.34143292 113.31766798 28.34143292 113.31766798 28.23852539 111.36303711 C28.23328857 110.5303833 28.22805176 109.69772949 28.22265625 108.83984375 C28.21943359 107.94072266 28.21621094 107.04160156 28.21289062 106.11523438 C28.20451172 105.16970703 28.19613281 104.22417969 28.1875 103.25 C28.18298828 102.30060547 28.17847656 101.35121094 28.17382812 100.37304688 C28.1620011 98.01946935 28.14552025 95.66601523 28.125 93.3125 C21.29326164 93.21070257 14.46172041 93.14086809 7.62939453 93.09277344 C5.30738007 93.07271423 2.98541577 93.04546009 0.66357422 93.01074219 C-2.68274345 92.96197459 -6.02839059 92.93947357 -9.375 92.921875 C-10.4055249 92.90122986 -11.4360498 92.88058472 -12.49780273 92.85931396 C-20.36120987 92.85689078 -26.49311777 94.291844 -31.8125 100.375 Z " fill="#000000" transform="translate(1188.875,117.6875)"/>
<path d="M0 0 C14.53073115 12.03680424 22.32516148 28.84295357 24.71875 47.32421875 C25.0804789 52.05181457 25.2488618 56.75959492 25.3125 61.5 C25.33030518 62.36133545 25.34811035 63.2226709 25.36645508 64.11010742 C25.3603526 68.88552851 25.15509922 72.1577246 22 76 C18.8554338 78.09637746 18.15521392 78.24889851 14.57710266 78.24050903 C13.67266418 78.24325836 12.76822571 78.24600769 11.83638 78.24884033 C10.35176521 78.2380545 10.35176521 78.2380545 8.8371582 78.22705078 C7.27105301 78.22748886 7.27105301 78.22748886 5.67330933 78.22793579 C2.21571598 78.22654033 -1.24166296 78.21096877 -4.69921875 78.1953125 C-7.0938963 78.19158314 -9.48857538 78.18873581 -11.883255 78.18673706 C-18.1912557 78.17909453 -24.49916454 78.15944064 -30.80712891 78.1373291 C-37.24184934 78.11688407 -43.67658459 78.10773821 -50.11132812 78.09765625 C-62.74092464 78.0761954 -75.37045744 78.04243544 -88 78 C-87.40033589 80.39431787 -86.79093362 82.78543912 -86.17578125 85.17578125 C-86.00856567 85.84774536 -85.8413501 86.51970947 -85.66906738 87.21203613 C-83.77153455 94.51898688 -80.91784762 99.6900373 -75 104.375 C-64.04452407 109.64717164 -49.82213113 110.79607997 -38.08203125 107.75 C-31.7141766 105.45613866 -26.85706446 101.19857526 -22.0546875 96.55078125 C-15.65236019 91.71860645 -7.54216601 92.63276382 0.0625 92.625 C1.32900391 92.60050781 2.59550781 92.57601562 3.90039062 92.55078125 C5.12048828 92.54691406 6.34058594 92.54304688 7.59765625 92.5390625 C8.70633057 92.53084473 9.81500488 92.52262695 10.95727539 92.51416016 C14.69701461 93.11129416 16.3420521 94.34655353 19 97 C21.29721758 103.89165275 19.72543374 110.47330342 17 117 C9.91417769 129.13178669 -1.00479527 134.41300374 -14.125 138.1875 C-40.77669068 144.99804029 -77.19076237 146.64853602 -102 133 C-120.01635292 121.9017594 -130.95292324 108.013383 -135.96875 87.10546875 C-141.06388694 63.62144226 -139.34234515 36.97437133 -126.625 16.1875 C-114.5844307 -1.64081076 -97.70086769 -10.50482272 -77 -15 C-51.03763264 -19.88208901 -21.5194143 -15.73105189 0 0 Z M-80 24 C-85.93500352 31.42793224 -88 38.52739271 -88 48 C-67.21 48 -46.42 48 -25 48 C-25.90548287 38.94517132 -26.57804104 32.2774487 -32.25 25.1875 C-46.38455196 13.9441064 -65.37661998 11.90902195 -80 24 Z " fill="#000000" transform="translate(843,134)"/>
<path d="M0 0 C5.87461947 4.97686605 11.10647882 10.69417102 12.39826393 18.54620552 C12.55740897 21.68217299 12.56429049 24.78249953 12.51293945 27.92211914 C12.51366959 29.10361542 12.51439972 30.28511169 12.51515198 31.50241089 C12.51168671 35.38229321 12.47287232 39.26095407 12.43359375 43.140625 C12.42147147 45.84060493 12.4169014 48.54058368 12.41215515 51.24058533 C12.39666718 57.60474296 12.35570826 63.96846678 12.3054077 70.33243412 C12.24935589 77.58274567 12.22198816 84.83307886 12.19693053 92.08355343 C12.14478698 106.98693281 12.05694435 121.88990722 11.9453125 136.79296875 C10.4603125 135.80296875 10.4603125 135.80296875 8.9453125 134.79296875 C8.9453125 134.13296875 8.9453125 133.47296875 8.9453125 132.79296875 C8.3265625 132.64859375 7.7078125 132.50421875 7.0703125 132.35546875 C4.9453125 131.79296875 4.9453125 131.79296875 2.9453125 130.79296875 C2.9453125 130.13296875 2.9453125 129.47296875 2.9453125 128.79296875 C-0.6846875 127.80296875 -4.3146875 126.81296875 -8.0546875 125.79296875 C-8.0546875 125.13296875 -8.0546875 124.47296875 -8.0546875 123.79296875 C-9.1890625 123.66921875 -10.3234375 123.54546875 -11.4921875 123.41796875 C-14.40803604 123.06601783 -17.13953829 122.52730548 -19.97265625 121.765625 C-26.25152104 120.3466287 -32.52372933 120.54065874 -38.9296875 120.60546875 C-40.13238281 120.60611328 -41.33507813 120.60675781 -42.57421875 120.60742188 C-49.78549196 120.64265611 -56.88712283 120.99667449 -64.0546875 121.79296875 C-64.0546875 122.45296875 -64.0546875 123.11296875 -64.0546875 123.79296875 C-67.6846875 124.78296875 -71.3146875 125.77296875 -75.0546875 126.79296875 C-75.0546875 83.89296875 -75.0546875 40.99296875 -75.0546875 -3.20703125 C-50.62974772 -17.1641397 -23.1019752 -16.69132479 0 0 Z " fill="#FEFDFE" transform="translate(1496.0546875,115.20703125)"/>
<path d="M0 0 C0 42.9 0 85.8 0 130 C-5 129 -5 129 -8.25 127.5625 C-16.34739452 124.00699295 -24.44150299 123.67301877 -33.1875 123.75 C-34.84688599 123.76015137 -34.84688599 123.76015137 -36.53979492 123.77050781 C-53.47109283 123.9841833 -70.72982754 126.322358 -84.13330078 137.59008789 C-85.07931152 138.38535889 -86.02532227 139.18062988 -87 140 C-87.1170091 124.37906586 -87.20507379 108.75825082 -87.25906086 93.13698673 C-87.28479881 85.88308591 -87.3198641 78.62945802 -87.37719727 71.37573242 C-87.42716834 65.05041435 -87.45932305 58.72529402 -87.47044247 52.39978403 C-87.47693857 49.05291193 -87.49476686 45.7070515 -87.52865028 42.36027718 C-87.56504208 38.61622969 -87.56994077 34.8733468 -87.56762695 31.12915039 C-87.58560333 30.03006851 -87.60357971 28.93098663 -87.62210083 27.79859924 C-87.56626569 19.42749996 -85.21356829 14.11842396 -80.11328125 7.58203125 C-57.62662615 -14.5143999 -26.72052862 -13.36026431 0 0 Z " fill="#FEFDFE" transform="translate(1607,112)"/>
<path d="M0 0 C0.81049805 -0.02239746 1.62099609 -0.04479492 2.45605469 -0.06787109 C6.18975643 -0.05287314 8.13670128 -0.00125931 11.234375 2.21484375 C14.78904885 7.42775464 13.96978804 13.73989651 14 19.8125 C14.020625 20.84117187 14.04125 21.86984375 14.0625 22.9296875 C14.1141362 32.94710951 14.1141362 32.94710951 10.75 37.4375 C6.59904033 39.64607768 3.07372508 39.62191572 -1.5703125 39.4921875 C-3.00780243 39.46686959 -4.44530299 39.44214958 -5.8828125 39.41796875 C-8.12079073 39.36868052 -10.35819462 39.31300623 -12.59570312 39.24560547 C-24.43100744 38.91217964 -34.31784354 39.85806234 -44.0625 47.3125 C-44.91457031 47.94929688 -45.76664063 48.58609375 -46.64453125 49.2421875 C-47.50433594 49.96664062 -48.36414063 50.69109375 -49.25 51.4375 C-49.7584911 51.83979073 -50.26698219 52.24208145 -50.79088211 52.65656281 C-53.89233361 55.35502527 -55.61516611 57.32201789 -55.99603271 61.49743652 C-56.02483074 63.06248004 -56.02121954 64.62833861 -55.99121094 66.19335938 C-55.99862808 67.05266556 -56.00604523 67.91197174 -56.01368713 68.7973175 C-56.0315323 71.62595816 -56.0077696 74.45267622 -55.984375 77.28125 C-55.99055115 79.25371391 -55.99964838 81.22617064 -56.01153564 83.1986084 C-56.0362549 88.3848765 -56.02703864 93.57049991 -56.00897217 98.7567749 C-55.98555866 107.0571027 -56.01278527 115.35738845 -56.04169464 123.65766907 C-56.04680244 126.55262487 -56.03697375 129.44723423 -56.02484131 132.34216309 C-56.02502994 134.12198899 -56.0255224 135.90181491 -56.02636719 137.68164062 C-56.01546806 138.88346733 -56.01546806 138.88346733 -56.00434875 140.10957336 C-56.02176784 145.34004944 -56.38991532 149.94097355 -59.62818909 154.2872467 C-62.66077521 156.43807832 -66.56052728 155.88354391 -70.15234375 155.87109375 C-71.02645401 155.8763356 -71.90056427 155.88157745 -72.80116272 155.88697815 C-74.64957619 155.89340058 -76.49803052 155.89205848 -78.34643555 155.88354492 C-81.17375584 155.87504134 -83.99905161 155.90378148 -86.82617188 155.93554688 C-88.62239523 155.93715915 -90.41862216 155.93658085 -92.21484375 155.93359375 C-93.05973862 155.94482773 -93.90463348 155.95606171 -94.77513123 155.96763611 C-95.5659761 155.95825516 -96.35682098 155.94887421 -97.17163086 155.93920898 C-97.8642955 155.93904282 -98.55696014 155.93887665 -99.27061462 155.93870544 C-102.20407754 155.19591548 -103.3529485 153.76276886 -105.25 151.4375 C-105.75336456 148.70758057 -105.75336456 148.70758057 -105.75793457 145.51660156 C-105.76921387 144.30524536 -105.78049316 143.09388916 -105.79211426 141.8458252 C-105.78433734 140.5065894 -105.77614468 139.16735597 -105.76757812 137.828125 C-105.77299928 136.41531655 -105.78012191 135.00251376 -105.78881836 133.58972168 C-105.80705583 129.75496057 -105.79998271 125.92062985 -105.78730202 122.08586121 C-105.77717643 118.07317951 -105.78656646 114.06053471 -105.79284668 110.04785156 C-105.80012439 103.30917747 -105.79053222 96.57067872 -105.77148438 89.83203125 C-105.74971527 82.04068576 -105.75676657 74.24975895 -105.77879 66.45842361 C-105.79694055 59.76955201 -105.79950405 53.08080646 -105.78903532 46.39191818 C-105.78279845 42.39666633 -105.78196994 38.40161129 -105.79518127 34.40637207 C-105.80673429 30.65023699 -105.79872481 26.8946418 -105.77560425 23.13856506 C-105.77031411 21.7599019 -105.77183624 20.38119332 -105.78065491 19.00254822 C-105.79157998 17.12118144 -105.77545207 15.23971539 -105.75793457 13.35839844 C-105.75642647 12.30537537 -105.75491837 11.25235229 -105.75336456 10.16741943 C-105.1237287 6.75268723 -103.93355883 5.56953254 -101.25 3.4375 C-99.27734375 2.92956543 -99.27734375 2.92956543 -97.1875 2.91992188 C-96.00607422 2.90100891 -96.00607422 2.90100891 -94.80078125 2.88171387 C-93.95902344 2.88981079 -93.11726562 2.89790771 -92.25 2.90625 C-91.37730469 2.9024231 -90.50460937 2.89859619 -89.60546875 2.89465332 C-87.76300908 2.8919351 -85.92051076 2.89929006 -84.078125 2.91601562 C-81.25954066 2.93742752 -78.44350515 2.91621199 -75.625 2.890625 C-73.83332771 2.89326829 -72.04165701 2.89839331 -70.25 2.90625 C-69.40824219 2.89815308 -68.56648437 2.89005615 -67.69921875 2.88171387 C-61.87839119 2.97489712 -61.87839119 2.97489712 -58.72558594 5.29589844 C-56.85647782 8.00864106 -56.65581347 9.91541705 -56.5 13.1875 C-56.44328125 14.17234375 -56.3865625 15.1571875 -56.328125 16.171875 C-56.30234375 16.91953125 -56.2765625 17.6671875 -56.25 18.4375 C-55.34121094 17.85742188 -54.43242188 17.27734375 -53.49609375 16.6796875 C-36.63167047 6.11080172 -19.97948347 0.34710443 0 0 Z " fill="#000000" transform="translate(998.25,117.5625)"/>
<path d="M0 0 C0.81049805 -0.02239746 1.62099609 -0.04479492 2.45605469 -0.06787109 C6.18975643 -0.05287314 8.13670128 -0.00125931 11.234375 2.21484375 C14.78904885 7.42775464 13.96978804 13.73989651 14 19.8125 C14.020625 20.84117187 14.04125 21.86984375 14.0625 22.9296875 C14.1141362 32.94710951 14.1141362 32.94710951 10.75 37.4375 C6.59904033 39.64607768 3.07372508 39.62191572 -1.5703125 39.4921875 C-3.00780243 39.46686959 -4.44530299 39.44214958 -5.8828125 39.41796875 C-8.12079073 39.36868052 -10.35819462 39.31300623 -12.59570312 39.24560547 C-24.43100744 38.91217964 -34.31784354 39.85806234 -44.0625 47.3125 C-44.91457031 47.94929688 -45.76664063 48.58609375 -46.64453125 49.2421875 C-47.50433594 49.96664062 -48.36414063 50.69109375 -49.25 51.4375 C-49.7584911 51.83979073 -50.26698219 52.24208145 -50.79088211 52.65656281 C-53.89233361 55.35502527 -55.61516611 57.32201789 -55.99603271 61.49743652 C-56.02483074 63.06248004 -56.02121954 64.62833861 -55.99121094 66.19335938 C-55.99862808 67.05266556 -56.00604523 67.91197174 -56.01368713 68.7973175 C-56.0315323 71.62595816 -56.0077696 74.45267622 -55.984375 77.28125 C-55.99055115 79.25371391 -55.99964838 81.22617064 -56.01153564 83.1986084 C-56.0362549 88.3848765 -56.02703864 93.57049991 -56.00897217 98.7567749 C-55.98555866 107.0571027 -56.01278527 115.35738845 -56.04169464 123.65766907 C-56.04680244 126.55262487 -56.03697375 129.44723423 -56.02484131 132.34216309 C-56.02502994 134.12198899 -56.0255224 135.90181491 -56.02636719 137.68164062 C-56.01546806 138.88346733 -56.01546806 138.88346733 -56.00434875 140.10957336 C-56.02176784 145.34004944 -56.38991532 149.94097355 -59.62818909 154.2872467 C-62.66077521 156.43807832 -66.56052728 155.88354391 -70.15234375 155.87109375 C-71.02645401 155.8763356 -71.90056427 155.88157745 -72.80116272 155.88697815 C-74.64957619 155.89340058 -76.49803052 155.89205848 -78.34643555 155.88354492 C-81.17375584 155.87504134 -83.99905161 155.90378148 -86.82617188 155.93554688 C-88.62239523 155.93715915 -90.41862216 155.93658085 -92.21484375 155.93359375 C-93.05973862 155.94482773 -93.90463348 155.95606171 -94.77513123 155.96763611 C-95.5659761 155.95825516 -96.35682098 155.94887421 -97.17163086 155.93920898 C-97.8642955 155.93904282 -98.55696014 155.93887665 -99.27061462 155.93870544 C-102.20407754 155.19591548 -103.3529485 153.76276886 -105.25 151.4375 C-105.75336456 148.70758057 -105.75336456 148.70758057 -105.75793457 145.51660156 C-105.76921387 144.30524536 -105.78049316 143.09388916 -105.79211426 141.8458252 C-105.78433734 140.5065894 -105.77614468 139.16735597 -105.76757812 137.828125 C-105.77299928 136.41531655 -105.78012191 135.00251376 -105.78881836 133.58972168 C-105.80705583 129.75496057 -105.79998271 125.92062985 -105.78730202 122.08586121 C-105.77717643 118.07317951 -105.78656646 114.06053471 -105.79284668 110.04785156 C-105.80012439 103.30917747 -105.79053222 96.57067872 -105.77148438 89.83203125 C-105.74971527 82.04068576 -105.75676657 74.24975895 -105.77879 66.45842361 C-105.79694055 59.76955201 -105.79950405 53.08080646 -105.78903532 46.39191818 C-105.78279845 42.39666633 -105.78196994 38.40161129 -105.79518127 34.40637207 C-105.80673429 30.65023699 -105.79872481 26.8946418 -105.77560425 23.13856506 C-105.77031411 21.7599019 -105.77183624 20.38119332 -105.78065491 19.00254822 C-105.79157998 17.12118144 -105.77545207 15.23971539 -105.75793457 13.35839844 C-105.75642647 12.30537537 -105.75491837 11.25235229 -105.75336456 10.16741943 C-105.1237287 6.75268723 -103.93355883 5.56953254 -101.25 3.4375 C-99.27734375 2.92956543 -99.27734375 2.92956543 -97.1875 2.91992188 C-96.00607422 2.90100891 -96.00607422 2.90100891 -94.80078125 2.88171387 C-93.95902344 2.88981079 -93.11726562 2.89790771 -92.25 2.90625 C-91.37730469 2.9024231 -90.50460937 2.89859619 -89.60546875 2.89465332 C-87.76300908 2.8919351 -85.92051076 2.89929006 -84.078125 2.91601562 C-81.25954066 2.93742752 -78.44350515 2.91621199 -75.625 2.890625 C-73.83332771 2.89326829 -72.04165701 2.89839331 -70.25 2.90625 C-69.40824219 2.89815308 -68.56648437 2.89005615 -67.69921875 2.88171387 C-61.87839119 2.97489712 -61.87839119 2.97489712 -58.72558594 5.29589844 C-56.85647782 8.00864106 -56.65581347 9.91541705 -56.5 13.1875 C-56.44328125 14.17234375 -56.3865625 15.1571875 -56.328125 16.171875 C-56.30234375 16.91953125 -56.2765625 17.6671875 -56.25 18.4375 C-55.34121094 17.85742188 -54.43242188 17.27734375 -53.49609375 16.6796875 C-36.63167047 6.11080172 -19.97948347 0.34710443 0 0 Z " fill="#000000" transform="translate(682.25,117.5625)"/>
<path d="M0 0 C1.11640869 -0.0236412 1.11640869 -0.0236412 2.25537109 -0.04776001 C3.04508301 -0.03763885 3.83479492 -0.0275177 4.6484375 -0.01708984 C5.4729541 -0.02187347 6.2974707 -0.0266571 7.14697266 -0.03158569 C8.88511063 -0.03497857 10.62331294 -0.02581887 12.36132812 -0.00488281 C15.01577575 0.02189536 17.66599575 -0.0046473 20.3203125 -0.03662109 C22.01303013 -0.03331688 23.70574513 -0.0269104 25.3984375 -0.01708984 C26.58300537 -0.03227158 26.58300537 -0.03227158 27.79150391 -0.04776001 C31.95346417 0.04037416 33.59186034 0.31472338 37 2.93847656 C40.34609505 7.41743149 40.16939818 11.51358028 40.15715027 16.95907593 C40.15941583 17.69738321 40.16168138 18.43569049 40.16401559 19.19637072 C40.1703477 21.67129429 40.16952673 24.14616298 40.16870117 26.62109375 C40.17169315 28.39517793 40.17509577 30.16926145 40.17887878 31.94334412 C40.18771895 36.7636078 40.1900569 41.58385373 40.19069457 46.40412474 C40.19164387 50.42750824 40.19532241 54.4508876 40.19886667 58.47426951 C40.20701126 67.96640967 40.20945089 77.45854034 40.20874023 86.95068359 C40.2081394 96.74363255 40.21869232 106.53652644 40.2344839 116.32946146 C40.24755755 124.73636299 40.25292421 133.14324652 40.25228482 141.55015814 C40.25202979 146.57158889 40.25488406 151.5929707 40.26546288 156.61439133 C40.27514091 161.33723796 40.27522504 166.05998882 40.26794624 170.78283882 C40.26690004 172.51543505 40.26926539 174.24803723 40.2753067 175.98062325 C40.28302463 178.34749553 40.27838322 180.71403694 40.27067566 183.0809021 C40.27581922 183.76495821 40.28096279 184.44901433 40.28626221 185.15379941 C40.2509773 190.06409218 39.63322374 194.48638611 36.64524841 198.49671936 C33.61266229 200.64755097 29.71291022 200.09301656 26.12109375 200.08056641 C25.24698349 200.08580826 24.37287323 200.09105011 23.47227478 200.09645081 C21.62386131 200.10287324 19.77540698 200.10153113 17.92700195 200.09301758 C15.09968166 200.08451399 12.27438589 200.11325413 9.44726562 200.14501953 C7.65104227 200.14663181 5.85481534 200.14605351 4.05859375 200.14306641 C3.21369888 200.15430038 2.36880402 200.16553436 1.49830627 200.17710876 C0.7074614 200.16772781 -0.08338348 200.15834686 -0.89819336 200.14868164 C-1.590858 200.14851547 -2.28352264 200.1483493 -2.99717712 200.1481781 C-5.99600976 199.3888357 -7.08025898 198.07884575 -8.9765625 195.64697266 C-9.37171791 192.95706508 -9.52181842 190.6749829 -9.4912262 187.98646545 C-9.49817172 187.21070064 -9.50511725 186.43493582 -9.51227325 185.63566297 C-9.5305834 183.03375385 -9.52026815 180.43275239 -9.51000977 177.83081055 C-9.51706624 175.96642879 -9.52581011 174.10205277 -9.53611755 172.23768616 C-9.55865212 167.17153959 -9.55566227 162.10570483 -9.54679608 157.03952718 C-9.54169205 152.81223275 -9.54897403 148.58499723 -9.55626816 144.35770887 C-9.57328019 134.38612547 -9.56968828 124.41469505 -9.55297852 114.44311523 C-9.53605523 104.1512759 -9.55189171 93.85986063 -9.5842014 83.56806761 C-9.6108804 74.7356782 -9.61817788 65.90342093 -9.60968632 57.07099527 C-9.60475224 51.79409688 -9.6069987 46.5174537 -9.62747383 41.24058723 C-9.64580437 36.27871412 -9.63990437 31.31745191 -9.61527443 26.3556118 C-9.6102582 24.53390942 -9.61377732 22.7121607 -9.62642288 20.8904953 C-9.64231598 18.40444574 -9.62744007 15.92041711 -9.60475159 13.4344635 C-9.61658732 12.71247601 -9.62842304 11.99048852 -9.64061743 11.24662262 C-9.56817529 7.34324069 -9.0714157 5.76278859 -6.56294155 2.69993687 C-4.03632357 0.6944086 -3.13007123 0.01918888 0 0 Z " fill="#000000" transform="translate(232.9765625,73.35302734375)"/>
<path d="M0 0 C0.80277878 -0.00902847 1.60555756 -0.01805695 2.43266296 -0.02735901 C4.13142163 -0.04186263 5.83023617 -0.05074853 7.52905273 -0.05444336 C10.11734279 -0.06631736 12.70323039 -0.11547776 15.29101562 -0.16601562 C16.94399882 -0.175483 18.59699662 -0.18271653 20.25 -0.1875 C21.01895096 -0.20703232 21.78790192 -0.22656464 22.58015442 -0.24668884 C23.67610176 -0.23757225 23.67610176 -0.23757225 24.79418945 -0.22827148 C25.74658257 -0.23587746 25.74658257 -0.23587746 26.71821594 -0.24363708 C30.33627922 0.81245603 32.7766065 2.23948959 34.82421875 5.37109375 C35.73662497 9.77664928 35.63300974 14.13390651 35.5847168 18.61914062 C35.59121355 19.98122048 35.60027713 21.34329015 35.61170959 22.70533752 C35.6347645 26.39776442 35.62008846 30.08915598 35.59724021 33.78154945 C35.57830649 37.64828563 35.58948531 41.5149531 35.59614563 45.38171387 C35.60248378 51.87492289 35.5842294 58.36771773 35.55151367 64.86083984 C35.51401961 72.36429619 35.51579827 79.86696794 35.53855485 87.37046576 C35.55951453 94.59310945 35.55222397 101.81546359 35.5322361 109.0381012 C35.52425627 112.10983058 35.526234 115.18131463 35.5362606 118.2530365 C35.5468231 121.87145062 35.53265441 125.48895203 35.49951744 129.1072216 C35.48741357 131.06592004 35.49982392 133.02472198 35.51296997 134.9834137 C35.38567423 144.55838745 35.38567423 144.55838745 32.53805542 147.66064453 C29.94847357 149.29277969 28.73936187 149.99552983 25.73999023 149.98632812 C24.58870888 150.00028625 24.58870888 150.00028625 23.41416931 150.01452637 C22.19208519 149.98993347 22.19208519 149.98993347 20.9453125 149.96484375 C20.09622818 149.96488403 19.24714386 149.96492432 18.37232971 149.96496582 C16.58286103 149.959619 14.79339229 149.94207195 13.00415039 149.91308594 C10.26701072 149.87117478 7.53232884 149.87202402 4.79492188 149.87890625 C3.05336834 149.8684149 1.31182747 149.85547709 -0.4296875 149.83984375 C-1.24643448 149.83964233 -2.06318146 149.83944092 -2.90467834 149.8392334 C-6.21577903 149.77030621 -8.71748936 149.61863893 -11.65991211 148.02929688 C-14.4730673 144.95199779 -14.30434553 141.84846805 -14.31622314 137.88088989 C-14.32193329 136.73966675 -14.32764343 135.5984436 -14.33352661 134.42263794 C-14.33464447 133.16957855 -14.33576233 131.91651917 -14.33691406 130.62548828 C-14.34187897 129.30659607 -14.34684387 127.98770386 -14.35195923 126.62884521 C-14.36507626 123.00896838 -14.3715267 119.38911009 -14.37596989 115.7692132 C-14.37890145 113.50760683 -14.3830064 111.24600552 -14.38747406 108.9844017 C-14.40114653 101.90814841 -14.41081468 94.83190669 -14.41467595 87.7556411 C-14.41915765 79.58733516 -14.4367117 71.41919648 -14.46567655 63.2509414 C-14.48729012 56.93662648 -14.49738004 50.62235864 -14.49871707 44.30800712 C-14.49976524 40.53683726 -14.50567563 36.76582467 -14.52353668 32.99469376 C-14.54001211 29.44716162 -14.54217562 25.89990509 -14.53339767 22.35234833 C-14.53225989 20.43174742 -14.54598098 18.51115567 -14.56015015 16.59060669 C-14.55458099 15.4437439 -14.54901184 14.2968811 -14.54327393 13.11526489 C-14.54474049 12.12085955 -14.54620705 11.1264542 -14.54771805 10.10191536 C-14.1050182 6.85153974 -13.10934336 5.0033242 -11.17578125 2.37109375 C-7.41118427 -0.13863757 -4.36640868 0.03021294 0 0 Z " fill="#000000" transform="translate(1045.17578125,123.62890625)"/>
<path d="M0 0 C0.80277878 -0.00902847 1.60555756 -0.01805695 2.43266296 -0.02735901 C4.13142163 -0.04186263 5.83023617 -0.05074853 7.52905273 -0.05444336 C10.11734279 -0.06631736 12.70323039 -0.11547776 15.29101562 -0.16601562 C16.94399882 -0.175483 18.59699662 -0.18271653 20.25 -0.1875 C21.01895096 -0.20703232 21.78790192 -0.22656464 22.58015442 -0.24668884 C23.67610176 -0.23757225 23.67610176 -0.23757225 24.79418945 -0.22827148 C25.74658257 -0.23587746 25.74658257 -0.23587746 26.71821594 -0.24363708 C30.33627922 0.81245603 32.7766065 2.23948959 34.82421875 5.37109375 C35.73662497 9.77664928 35.63300974 14.13390651 35.5847168 18.61914062 C35.59121355 19.98122048 35.60027713 21.34329015 35.61170959 22.70533752 C35.6347645 26.39776442 35.62008846 30.08915598 35.59724021 33.78154945 C35.57830649 37.64828563 35.58948531 41.5149531 35.59614563 45.38171387 C35.60248378 51.87492289 35.5842294 58.36771773 35.55151367 64.86083984 C35.51401961 72.36429619 35.51579827 79.86696794 35.53855485 87.37046576 C35.55951453 94.59310945 35.55222397 101.81546359 35.5322361 109.0381012 C35.52425627 112.10983058 35.526234 115.18131463 35.5362606 118.2530365 C35.5468231 121.87145062 35.53265441 125.48895203 35.49951744 129.1072216 C35.48741357 131.06592004 35.49982392 133.02472198 35.51296997 134.9834137 C35.38567423 144.55838745 35.38567423 144.55838745 32.53805542 147.66064453 C29.94847357 149.29277969 28.73936187 149.99552983 25.73999023 149.98632812 C24.58870888 150.00028625 24.58870888 150.00028625 23.41416931 150.01452637 C22.19208519 149.98993347 22.19208519 149.98993347 20.9453125 149.96484375 C20.09622818 149.96488403 19.24714386 149.96492432 18.37232971 149.96496582 C16.58286103 149.959619 14.79339229 149.94207195 13.00415039 149.91308594 C10.26701072 149.87117478 7.53232884 149.87202402 4.79492188 149.87890625 C3.05336834 149.8684149 1.31182747 149.85547709 -0.4296875 149.83984375 C-1.24643448 149.83964233 -2.06318146 149.83944092 -2.90467834 149.8392334 C-6.21577903 149.77030621 -8.71748936 149.61863893 -11.65991211 148.02929688 C-14.4730673 144.95199779 -14.30434553 141.84846805 -14.31622314 137.88088989 C-14.32193329 136.73966675 -14.32764343 135.5984436 -14.33352661 134.42263794 C-14.33464447 133.16957855 -14.33576233 131.91651917 -14.33691406 130.62548828 C-14.34187897 129.30659607 -14.34684387 127.98770386 -14.35195923 126.62884521 C-14.36507626 123.00896838 -14.3715267 119.38911009 -14.37596989 115.7692132 C-14.37890145 113.50760683 -14.3830064 111.24600552 -14.38747406 108.9844017 C-14.40114653 101.90814841 -14.41081468 94.83190669 -14.41467595 87.7556411 C-14.41915765 79.58733516 -14.4367117 71.41919648 -14.46567655 63.2509414 C-14.48729012 56.93662648 -14.49738004 50.62235864 -14.49871707 44.30800712 C-14.49976524 40.53683726 -14.50567563 36.76582467 -14.52353668 32.99469376 C-14.54001211 29.44716162 -14.54217562 25.89990509 -14.53339767 22.35234833 C-14.53225989 20.43174742 -14.54598098 18.51115567 -14.56015015 16.59060669 C-14.55458099 15.4437439 -14.54901184 14.2968811 -14.54327393 13.11526489 C-14.54474049 12.12085955 -14.54620705 11.1264542 -14.54771805 10.10191536 C-14.1050182 6.85153974 -13.10934336 5.0033242 -11.17578125 2.37109375 C-7.41118427 -0.13863757 -4.36640868 0.03021294 0 0 Z " fill="#000000" transform="translate(320.17578125,123.62890625)"/>
<path d="M0 0 C2.31 0 4.62 0 7 0 C7 47.52 7 95.04 7 144 C38.68 144 70.36 144 103 144 C103.99 145.98 104.98 147.96 106 150 C108.94960953 153.28994909 112.43435161 153.78898085 116.68359375 154.125 C120.77720559 153.90409683 122.76036828 152.52691274 126 150 C126.99 148.02 127.98 146.04 129 144 C160.68 144 192.36 144 225 144 C225 96.48 225 48.96 225 0 C231 0 231 0 234 2 C235.06369583 5.19108748 235.1336488 7.47774449 235.14717102 10.83187866 C235.15790398 12.65730446 235.15790398 12.65730446 235.16885376 14.51960754 C235.17169395 15.87033056 235.17440568 17.22105384 235.17700195 18.57177734 C235.18326761 19.99266221 235.1899145 21.41354544 235.19691467 22.83442688 C235.21794114 27.50158551 235.22831408 32.16874442 235.23828125 36.8359375 C235.242329 38.44273521 235.24644593 40.04953275 235.25063133 41.65633011 C235.269678 49.20351196 235.28391148 56.75068404 235.2922433 64.2978853 C235.30202144 73.01127778 235.32835801 81.72441662 235.36874419 90.4377197 C235.39888925 97.17241202 235.41371054 103.90703155 235.41702431 110.64179003 C235.4193762 114.66452008 235.4283546 118.68697898 235.45348549 122.70963669 C235.47674402 126.493601 235.48100869 130.2771152 235.47072411 134.06113243 C235.47022812 135.44907439 235.47656707 136.83703834 235.49028015 138.22491264 C235.50796743 140.12124415 235.49851788 142.01777065 235.48774719 143.91415405 C235.49013555 144.97492849 235.4925239 146.03570293 235.49498463 147.12862206 C234.86571721 150.77896693 233.65056357 152.44329564 231 155 C228.94442081 155.61968327 228.94442081 155.61968327 226.71827698 155.61231995 C225.87017456 155.62182678 225.02207214 155.63133362 224.14826965 155.64112854 C223.22608139 155.62621872 222.30389313 155.6113089 221.35375977 155.59594727 C220.3760965 155.6000058 219.39843323 155.60406433 218.3911438 155.60824585 C216.26913507 155.61376517 214.14707222 155.60774875 212.02511787 155.59158516 C208.66674001 155.56621995 205.30959284 155.57094555 201.95115662 155.58348083 C194.82146982 155.60425318 187.69216187 155.58453026 180.5625 155.5625 C172.3045372 155.5414097 164.04696914 155.53680705 155.78901482 155.56300163 C152.48004016 155.56636696 149.17181589 155.54512295 145.8629303 155.52259827 C143.83383012 155.52510944 141.80473087 155.52866939 139.77563477 155.53344727 C138.39538872 155.51411888 138.39538872 155.51411888 136.98725891 155.49440002 C132.77589559 155.52749522 130.61574836 155.59726977 127.01475525 157.95249939 C126.34988602 158.62817459 125.68501678 159.30384979 125 160 C120.53347407 162.72327989 116.09576041 162.65751747 111 162 C107.4590084 160.627623 104.69491541 158.69491541 102 156 C100.1234006 155.7013872 100.1234006 155.7013872 97.95205688 155.75517273 C97.10525864 155.75123505 96.25846039 155.74729736 95.38600159 155.74324036 C94.45505173 155.74893539 93.52410187 155.75463043 92.56494141 155.76049805 C91.5859639 155.75848389 90.60698639 155.75646973 89.5983429 155.75439453 C87.46756905 155.7508426 85.33678468 155.75162399 83.20601273 155.75617027 C79.83573434 155.76174493 76.4658025 155.75263521 73.09555054 155.7389679 C63.51160176 155.70176026 53.92776888 155.68331253 44.34375 155.69458008 C38.48630995 155.70042354 32.62935566 155.68220527 26.77201462 155.64869118 C24.53688285 155.64072205 22.30169836 155.64203451 20.06657791 155.65271568 C16.94179551 155.6670042 13.81854495 155.65081069 10.69384766 155.62768555 C9.76694626 155.63945328 8.84004486 155.65122101 7.88505554 155.66334534 C6.6063987 155.6447496 6.6063987 155.6447496 5.3019104 155.6257782 C4.56338648 155.62561046 3.82486256 155.62544271 3.06395912 155.62526989 C-0.17799995 154.64312864 -1.2472435 152.82478126 -3 150 C-3.50057125 147.13420868 -3.50057125 147.13420868 -3.50120544 143.9276123 C-3.51103958 142.70791245 -3.52087372 141.48821259 -3.53100586 140.23155212 C-3.52163477 138.88808923 -3.5118555 137.54462914 -3.50170898 136.20117188 C-3.50549386 134.77998825 -3.51099529 133.35880832 -3.51808167 131.93763733 C-3.53203185 128.08425761 -3.52086988 124.23132461 -3.50437045 120.37796974 C-3.49050888 116.3430815 -3.49698129 112.3082189 -3.50050354 108.27331543 C-3.50320479 101.4977296 -3.48973744 94.722321 -3.46655273 87.94677734 C-3.43994346 80.1162904 -3.43819618 72.28609976 -3.4499411 64.4555831 C-3.46072503 56.91904508 -3.454527 49.38261412 -3.44038582 41.84608459 C-3.43463133 38.64044155 -3.43470446 35.43487698 -3.43945122 32.22923279 C-3.444228 28.45345362 -3.43409058 24.67799838 -3.41249657 20.90228081 C-3.40693803 19.5175886 -3.40645486 18.13286521 -3.41144943 16.74817085 C-3.41741718 14.85623596 -3.40304317 12.96426963 -3.38768005 11.0723877 C-3.38525016 10.01421089 -3.38282026 8.95603409 -3.38031673 7.86579132 C-2.92304168 4.42009785 -2.34097668 2.59450278 0 0 Z " fill="#F7F1FA" transform="translate(1398,127)"/>
<path d="M0 0 C1.26199219 -0.00515625 2.52398438 -0.0103125 3.82421875 -0.015625 C5.13003906 -0.00015625 6.43585938 0.0153125 7.78125 0.03125 C9.73998047 0.00804688 9.73998047 0.00804688 11.73828125 -0.015625 C13.00027344 -0.01046875 14.26226563 -0.0053125 15.5625 0 C16.70783203 0.00451172 17.85316406 0.00902344 19.03320312 0.01367188 C24.05797302 0.81437183 27.15133834 3.34026203 30.59375 6.96875 C34.22784052 12.48718375 34.07392347 19.63029788 32.78515625 25.97265625 C31.3392273 30.93129394 29.8319073 33.7308455 25.28125 36.53125 C20.90696219 38.71839391 15.02164865 37.75835621 10.16040039 37.77148438 C7.98740017 37.7811669 5.81535537 37.81217826 3.64257812 37.84375 C2.25521394 37.85028269 0.867843 37.85553212 -0.51953125 37.859375 C-2.40925659 37.87339355 -2.40925659 37.87339355 -4.3371582 37.88769531 C-7.99942718 37.50166451 -9.81512794 36.75140061 -12.71875 34.53125 C-16.50906675 29.29360339 -17.35484758 25.34832401 -17.21875 18.96875 C-17.23421875 18.23978516 -17.2496875 17.51082031 -17.265625 16.75976562 C-17.228416 11.59236638 -16.18723864 8.56047763 -12.71875 4.53125 C-8.36601174 1.1197602 -5.51472115 0.02172372 0 0 Z " fill="#000000" transform="translate(1047.71875,70.46875)"/>
<path d="M0 0 C1.26199219 -0.00515625 2.52398437 -0.0103125 3.82421875 -0.015625 C5.13003906 -0.00015625 6.43585938 0.0153125 7.78125 0.03125 C9.73998047 0.00804688 9.73998047 0.00804688 11.73828125 -0.015625 C13.00027344 -0.01046875 14.26226562 -0.0053125 15.5625 0 C16.70783203 0.00451172 17.85316406 0.00902344 19.03320312 0.01367188 C24.05797302 0.81437183 27.15133834 3.34026203 30.59375 6.96875 C34.22784052 12.48718375 34.07392347 19.63029788 32.78515625 25.97265625 C31.3392273 30.93129394 29.8319073 33.7308455 25.28125 36.53125 C20.90696219 38.71839391 15.02164865 37.75835621 10.16040039 37.77148438 C7.98740017 37.7811669 5.81535537 37.81217826 3.64257812 37.84375 C2.25521394 37.85028269 0.867843 37.85553212 -0.51953125 37.859375 C-2.40925659 37.87339355 -2.40925659 37.87339355 -4.3371582 37.88769531 C-7.99942718 37.50166451 -9.81512794 36.75140061 -12.71875 34.53125 C-16.50906675 29.29360339 -17.35484758 25.34832401 -17.21875 18.96875 C-17.23421875 18.23978516 -17.2496875 17.51082031 -17.265625 16.75976562 C-17.228416 11.59236638 -16.18723864 8.56047763 -12.71875 4.53125 C-8.36601174 1.1197602 -5.51472115 0.02172372 0 0 Z " fill="#000000" transform="translate(322.71875,70.46875)"/>
<path d="M0 0 C1.65 0.66 3.3 1.32 5 2 C5 46.88 5 91.76 5 138 C4.34 137.67 3.68 137.34 3 137 C3 136.34 3 135.68 3 135 C1.35 134.34 -0.3 133.68 -2 133 C-2 132.34 -2 131.68 -2 131 C-3.48693359 130.814375 -3.48693359 130.814375 -5.00390625 130.625 C-9.75328829 129.94668745 -14.32295876 128.69991599 -18.95117188 127.4609375 C-42.06999845 121.45138801 -68.7913171 124.14555616 -90 135 C-86.98468314 128.17894341 -80.97556449 125.20897508 -74.30517578 122.53857422 C-73.62696777 122.27834473 -72.94875977 122.01811523 -72.25 121.75 C-71.6194873 121.5039502 -70.98897461 121.25790039 -70.33935547 121.00439453 C-52.1592974 114.4038172 -28.11660235 114.06722125 -10 121 C-6.7 122.65 -3.4 124.3 0 126 C0 84.42 0 42.84 0 0 Z " fill="#F3E8F8" transform="translate(1611,122)"/>
<path d="M0 0 C0 41.58 0 83.16 0 126 C4.29 124.02 8.58 122.04 13 120 C36.10494824 113.13714409 62.84027652 115.77581991 84.125 127.0625 C86.78619411 128.85591342 88.34720696 130.27775264 90 133 C89.67 133.66 89.34 134.32 89 135 C88.40574219 134.67386719 87.81148437 134.34773437 87.19921875 134.01171875 C64.18529655 121.87840673 34.39670873 122.49563194 9.8125 129.3125 C8.75192383 129.59516724 8.75192383 129.59516724 7.66992188 129.88354492 C2.90315272 131.30679555 0.282102 133.32188569 -3 137 C-3.66 137.33 -4.32 137.66 -5 138 C-5.07003341 120.4500193 -5.1229603 102.9000821 -5.15543652 85.34999371 C-5.17091555 77.201462 -5.19202478 69.05301705 -5.22631836 60.90454102 C-5.25618909 53.80359824 -5.27556746 46.70271828 -5.28226548 39.60171443 C-5.28618172 35.84061046 -5.29540669 32.07968621 -5.31719017 28.31863976 C-5.34129211 24.1233963 -5.3419715 19.92846671 -5.34057617 15.7331543 C-5.351362 14.48159042 -5.36214783 13.23002655 -5.3732605 11.9405365 C-5.36913651 10.80050171 -5.36501251 9.66046692 -5.36076355 8.48588562 C-5.36352893 7.49311458 -5.36629431 6.50034353 -5.36914349 5.47748852 C-5 3 -5 3 -3.60245228 1.15713215 C-2 0 -2 0 0 0 Z " fill="#F5EAF8" transform="translate(1417,122)"/>
<path d="M0 0 C0.33 0 0.66 0 1 0 C0.99907821 0.67752728 0.99815641 1.35505457 0.99720669 2.05311298 C0.97513657 18.52759044 0.95858116 35.00206323 0.94818783 51.47655201 C0.94302829 59.44343916 0.93599209 67.41031645 0.92456055 75.37719727 C0.91460328 82.31992639 0.90814408 89.26264837 0.90591151 96.20538443 C0.90460618 99.88258128 0.90153151 103.5597577 0.89426994 107.23694801 C0.88623539 111.33872006 0.88600954 115.44045644 0.88647461 119.54223633 C0.8810817 121.37750381 0.8810817 121.37750381 0.87557983 123.24984741 C0.87764183 124.9220359 0.87764183 124.9220359 0.87974548 126.62800598 C0.87882369 127.59865399 0.8779019 128.56930201 0.87695217 129.56936359 C0.89837708 132.14156272 0.89837708 132.14156272 2 135 C-1.00523443 134.00272726 -4.00677038 132.99766387 -7 131.96484375 C-7.99 131.62582031 -8.98 131.28679687 -10 130.9375 C-10.99 130.59589844 -11.98 130.25429687 -13 129.90234375 C-32.7167618 123.97191149 -57.66265646 127.30054103 -76 136 C-78.47167428 137.54532276 -80.69538936 139.20752505 -83 141 C-83.66 141 -84.32 141 -85 141 C-85.99 141.33 -86.98 141.66 -88 142 C-88 102.73 -88 63.46 -88 23 C-87.67 23 -87.34 23 -87 23 C-86.67 61.28 -86.34 99.56 -86 139 C-83.36 136.69 -80.72 134.38 -78 132 C-64.59916228 123.89892861 -48.93952034 122.82399403 -33.6875 122.75 C-32.63626953 122.729375 -31.58503906 122.70875 -30.50195312 122.6875 C-19.05979013 122.6312386 -10.47637848 125.34383179 0 130 C0 87.1 0 44.2 0 0 Z " fill="#AB60D3" transform="translate(1607,112)"/>
<path d="M0 0 C0.33 0 0.66 0 1 0 C1.33 42.57 1.66 85.14 2 129 C6.95 128.01 6.95 128.01 12 127 C12 126.34 12 125.68 12 125 C20.24650036 123.18439098 28.19181043 122.61575055 36.625 122.625 C37.84670898 122.62371094 39.06841797 122.62242187 40.32714844 122.62109375 C50.01221663 122.73368107 58.79335532 124.0538737 68 127 C68 127.66 68 128.32 68 129 C68.62648438 129.13277344 69.25296875 129.26554688 69.8984375 129.40234375 C70.71570312 129.57894531 71.53296875 129.75554687 72.375 129.9375 C73.18710938 130.11152344 73.99921875 130.28554687 74.8359375 130.46484375 C77 131 77 131 79 132 C79 132.66 79 133.32 79 134 C79.94875 134.268125 80.8975 134.53625 81.875 134.8125 C85 136 85 136 87 139 C87.33 100.72 87.66 62.44 88 23 C88.33 23 88.66 23 89 23 C89 61.94 89 100.88 89 141 C87.68 141.33 86.36 141.66 85 142 C84.67 141.01 84.34 140.02 84 139 C82.15602996 138.41083433 82.15602996 138.41083433 80 138 C78.52683699 137.25790103 77.06960742 136.48375972 75.625 135.6875 C57.28189062 126.32600187 32.70942026 125.02221073 12.86328125 130.0625 C9.32112341 131.22227883 5.97987794 132.61194303 2.671875 134.328125 C2.12015625 134.54984375 1.5684375 134.7715625 1 135 C0.34 134.67 -0.32 134.34 -1 134 C-0.67 133.01 -0.34 132.02 0 131 C0.09049716 129.22384212 0.12195639 127.44443088 0.12025452 125.66596985 C0.12162918 124.55959167 0.12300385 123.4532135 0.12442017 122.31330872 C0.12082489 121.0991478 0.11722961 119.88498688 0.11352539 118.6340332 C0.11367142 117.35587738 0.11381744 116.07772156 0.1139679 114.76083374 C0.11425512 111.25491083 0.10837044 107.74902205 0.10139394 104.24310708 C0.09514799 100.57956887 0.09455562 96.9160299 0.09336853 93.25248718 C0.09025889 86.31459154 0.08205042 79.37671163 0.07201904 72.43882293 C0.06084654 64.54047775 0.05534458 56.64213184 0.05032361 48.74378073 C0.03986752 32.49584461 0.02227515 16.24792431 0 0 Z " fill="#B172D0" transform="translate(1420,112)"/>
<path d="M0 0 C0.33 0 0.66 0 1 0 C1.33 46.53 1.66 93.06 2 141 C33.02 141.33 64.04 141.66 96 142 C96 142.66 96 143.32 96 144 C64.32 144 32.64 144 0 144 C0 96.48 0 48.96 0 0 Z " fill="#7E32CC" transform="translate(1405,127)"/>
<path d="M0 0 C0.33 0 0.66 0 1 0 C0.99861731 1.01629093 0.99861731 1.01629093 0.99720669 2.05311298 C0.97513657 18.52759044 0.95858116 35.00206323 0.94818783 51.47655201 C0.94302829 59.44343916 0.93599209 67.41031645 0.92456055 75.37719727 C0.91460328 82.31992639 0.90814408 89.26264837 0.90591151 96.20538443 C0.90460618 99.88258128 0.90153151 103.5597577 0.89426994 107.23694801 C0.88623539 111.33872006 0.88600954 115.44045644 0.88647461 119.54223633 C0.8810817 121.37750381 0.8810817 121.37750381 0.87557983 123.24984741 C0.8769545 124.36463974 0.87832916 125.47943207 0.87974548 126.62800598 C0.87882369 127.59865399 0.8779019 128.56930201 0.87695217 129.56936359 C0.89837708 132.14156272 0.89837708 132.14156272 2 135 C-1.00523443 134.00272726 -4.00677038 132.99766387 -7 131.96484375 C-8.485 131.45630859 -8.485 131.45630859 -10 130.9375 C-10.99 130.59589844 -11.98 130.25429687 -13 129.90234375 C-18.06243908 128.379657 -23.00393679 127.86620021 -28.2734375 127.68359375 C-29.42714844 127.64169922 -30.58085938 127.59980469 -31.76953125 127.55664062 C-32.95933594 127.51732422 -34.14914062 127.47800781 -35.375 127.4375 C-36.58800781 127.39431641 -37.80101562 127.35113281 -39.05078125 127.30664062 C-42.03375032 127.20094487 -45.01679742 127.09884679 -48 127 C-48 126.67 -48 126.34 -48 126 C-41.07 126 -34.14 126 -27 126 C-27 125.34 -27 124.68 -27 124 C-33.27 124 -39.54 124 -46 124 C-46 123.67 -46 123.34 -46 123 C-42.08348097 122.91140125 -38.16722626 122.85908083 -34.25 122.8125 C-33.15816406 122.78736328 -32.06632812 122.76222656 -30.94140625 122.73632812 C-19.26602283 122.63270046 -10.69635701 125.24606355 0 130 C0 87.1 0 44.2 0 0 Z " fill="#BA83D8" transform="translate(1607,112)"/>
<path d="M0 0 C0.66 0 1.32 0 2 0 C2 41.58 2 83.16 2 126 C1.67 126 1.34 126 1 126 C0.67 85.74 0.34 45.48 0 4 C-0.99 4.495 -0.99 4.495 -2 5 C-1.125 1.125 -1.125 1.125 0 0 Z " fill="#ECD9F2" transform="translate(1415,122)"/>
<path d="M0 0 C0.99 0.33 1.98 0.66 3 1 C2.67 1.66 2.34 2.32 2 3 C1.89543024 4.63419552 1.8534542 6.27256857 1.84178162 7.9100647 C1.8319928 8.94775497 1.82220398 9.98544525 1.81211853 11.05458069 C1.80636307 12.19753098 1.8006076 13.34048126 1.79467773 14.51806641 C1.78477814 15.71804764 1.77487854 16.91802887 1.76467896 18.15437317 C1.73845742 21.44959893 1.71660936 24.74480002 1.69667697 28.04006624 C1.67483227 31.48209033 1.64743618 34.92407004 1.62062073 38.36605835 C1.57067329 44.88604706 1.52574209 51.40606038 1.48259836 57.92609727 C1.43324349 65.34803893 1.37831889 72.76993607 1.32291877 80.19183469 C1.20906725 95.461182 1.10223513 110.73057023 1 126 C0.67 126 0.34 126 0 126 C0 84.42 0 42.84 0 0 Z " fill="#EDDAF2" transform="translate(1611,122)"/>
<path d="M0 0 C3.61662945 0.58147223 6.42443919 1.53624374 9.625 3.3125 C10.38039063 3.72113281 11.13578125 4.12976563 11.9140625 4.55078125 C14.17054875 6.11848986 15.47954993 7.72900929 17 10 C16.67 10.66 16.34 11.32 16 12 C15.40574219 11.67386719 14.81148437 11.34773438 14.19921875 11.01171875 C2.86583452 5.03657528 -8.43265831 3.3403062 -21 2 C-21 1.67 -21 1.34 -21 1 C-13.70968976 0.7505217 -7.09326321 1.27669093 0 3 C0 2.01 0 1.02 0 0 Z " fill="#DBBFEE" transform="translate(1490,245)"/>
<path d="M0 0 C0.33 0.33 0.66 0.66 1 1 C2.34747084 1.23075082 3.70377565 1.41153063 5.0625 1.5625 C6.361875 1.706875 7.66125 1.85125 9 2 C9 2.33 9 2.66 9 3 C7.54980469 3.25523437 7.54980469 3.25523437 6.0703125 3.515625 C-3.25217968 5.22512846 -11.51121893 7.68854234 -20 12 C-17.47466558 6.06482317 -11.89511205 2.70986048 -6.1875 0.0625 C-3 -1 -3 -1 0 0 Z " fill="#E9D8F4" transform="translate(1541,245)"/>
<path d="M0 0 C5.86809507 0.52393706 10.54873741 1.76108858 16 4 C16 4.66 16 5.32 16 6 C16.94875 6.268125 17.8975 6.53625 18.875 6.8125 C22 8 22 8 24 11 C24 11.99 24 12.98 24 14 C23.01 13.67 22.02 13.34 21 13 C21 12.34 21 11.68 21 11 C20.44054688 10.88527344 19.88109375 10.77054688 19.3046875 10.65234375 C16.69568799 9.91386423 14.52481931 8.82221824 12.125 7.5625 C9.19788138 6.05354225 6.59276688 4.87140007 3.4375 3.875 C2.633125 3.58625 1.82875 3.2975 1 3 C0.67 2.01 0.34 1.02 0 0 Z " fill="#9451DB" transform="translate(1483,240)"/>
<path d="M0 0 C0.495 0.309375 0.99 0.61875 1.5 0.9375 C-2.25300285 3.43640536 -4.91239986 2.83420677 -9.25 2.125 C-20.2697224 0.47785819 -31.37788429 0.28019044 -42.5 -0.0625 C-42.5 -0.3925 -42.5 -0.7225 -42.5 -1.0625 C-41.63721436 -1.05726318 -40.77442871 -1.05202637 -39.88549805 -1.04663086 C-36.68188727 -1.02958004 -33.47829964 -1.01704547 -30.2746582 -1.00756836 C-28.88858275 -1.00254223 -27.50251259 -0.99572034 -26.11645508 -0.98706055 C-24.12323285 -0.97491982 -22.12997181 -0.96978979 -20.13671875 -0.96484375 C-18.33787231 -0.95698853 -18.33787231 -0.95698853 -16.50268555 -0.94897461 C-3.39861782 -1.44441257 -3.39861782 -1.44441257 0 0 Z " fill="#A265DC" transform="translate(1486.5,239.0625)"/>
<path d="M0 0 C1.65 0 3.3 0 5 0 C5 0.33 5 0.66 5 1 C7.31 1.33 9.62 1.66 12 2 C12 2.33 12 2.66 12 3 C10.64068359 3.25523437 10.64068359 3.25523437 9.25390625 3.515625 C2.65066992 4.82928472 -3.33263937 6.21768509 -9.328125 9.328125 C-9.87984375 9.54984375 -10.4315625 9.7715625 -11 10 C-11.66 9.67 -12.32 9.34 -13 9 C-12.125 6.625 -12.125 6.625 -10 4 C-6.71567619 2.94753553 -3.41675391 2.42949815 0 2 C0 1.34 0 0.68 0 0 Z " fill="#9452E0" transform="translate(1432,237)"/>
<path d="M0 0 C1.03125 0.00322266 2.0625 0.00644531 3.125 0.00976562 C4.74535156 0.02233398 4.74535156 0.02233398 6.3984375 0.03515625 C8.03039063 0.04192383 8.03039063 0.04192383 9.6953125 0.04882812 C12.38807539 0.06063849 15.08072938 0.07710847 17.7734375 0.09765625 C17.7734375 0.75765625 17.7734375 1.41765625 17.7734375 2.09765625 C5.3984375 2.59265625 5.3984375 2.59265625 -7.2265625 3.09765625 C-7.2265625 2.43765625 -7.2265625 1.77765625 -7.2265625 1.09765625 C-4.66933021 -0.1809599 -2.85919148 -0.01570984 0 0 Z " fill="#37094C" transform="translate(1562.2265625,235.90234375)"/>
<path d="M0 0 C-0.99 0.495 -0.99 0.495 -2 1 C-2 1.66 -2 2.32 -2 3 C-0.68 3.33 0.64 3.66 2 4 C0.06325815 4.19517554 -1.87444009 4.38087873 -3.8125 4.5625 C-4.89144531 4.66691406 -5.97039062 4.77132812 -7.08203125 4.87890625 C-10 5 -10 5 -13 4 C-14.33106622 3.65772583 -15.66400079 3.32248257 -17 3 C-15.10614563 2.49255577 -13.20981334 1.99435426 -11.3125 1.5 C-9.72888672 1.08234375 -9.72888672 1.08234375 -8.11328125 0.65625 C-5.28857328 0.0608285 -2.87163292 -0.12786492 0 0 Z " fill="#A66CDD" transform="translate(1557,236)"/>
<path d="M0 0 C4.4571874 0.26218749 6.51522698 0.57711289 9.9375 3.5625 C10.618125 4.366875 11.29875 5.17125 12 6 C10 7 10 7 7.87109375 6.328125 C7.06800781 5.97234375 6.26492188 5.6165625 5.4375 5.25 C4.22900391 4.73179687 4.22900391 4.73179687 2.99609375 4.203125 C1 3 1 3 0 0 Z " fill="#8F4BE5" transform="translate(1597,240)"/>
<path d="M0 0 C0.66 0 1.32 0 2 0 C2.83764268 1.95649397 3.66999059 3.91525556 4.5 5.875 C5.19609375 7.51082031 5.19609375 7.51082031 5.90625 9.1796875 C7 12 7 12 7 14 C6.01 13.67 5.02 13.34 4 13 C2.83203125 10.56640625 2.83203125 10.56640625 1.8125 7.5625 C1.46832031 6.57378906 1.12414063 5.58507812 0.76953125 4.56640625 C0 2 0 2 0 0 Z " fill="#9448D1" transform="translate(1698,120)"/>
<path d="M0 0 C6.75342466 1.63013699 6.75342466 1.63013699 9 5 C9 5.99 9 6.98 9 8 C8.01 7.67 7.02 7.34 6 7 C6 6.34 6 5.68 6 5 C5.38125 4.9175 4.7625 4.835 4.125 4.75 C2 4 2 4 0.75 1.9375 C0.5025 1.298125 0.255 0.65875 0 0 Z " fill="#853BE5" transform="translate(1498,246)"/>
<path d="M0 0 C0.66 0.33 1.32 0.66 2 1 C1.67 1.33 1.34 1.66 1 2 C1.66 2.66 2.32 3.32 3 4 C-2.445 6.475 -2.445 6.475 -8 9 C-5.73106888 4.46213776 -3.90133466 3.05321843 0 0 Z " fill="#D8B8EA" transform="translate(1529,248)"/>
<path d="M0 0 C-0.99 0.495 -0.99 0.495 -2 1 C-2 1.66 -2 2.32 -2 3 C-6.455 3.495 -6.455 3.495 -11 4 C-11 3.34 -11 2.68 -11 2 C-7.17679443 0.57741188 -4.08718695 -0.24042276 0 0 Z " fill="#843AE0" transform="translate(1549,239)"/>
<path d="M0 0 C7.75 0.75 7.75 0.75 10 3 C9.67 3.33 9.34 3.66 9 4 C6.30917128 3.82364548 3.67148554 3.38164079 1 3 C0.67 2.01 0.34 1.02 0 0 Z " fill="#883EDF" transform="translate(1483,240)"/>
<path d="M0 0 C2.475 0.99 2.475 0.99 5 2 C2.37801226 4.15377564 0.35595828 5.40072174 -3 6 C-2.01 4.02 -1.02 2.04 0 0 Z " fill="#A063E5" transform="translate(1422,241)"/>
</svg>
