<?xml version="1.0" standalone="no"?>
<!DOCTYPE svg PUBLIC "-//W3C//DTD SVG 20010904//EN"
 "http://www.w3.org/TR/2001/REC-SVG-20010904/DTD/svg10.dtd">
<svg version="1.0" xmlns="http://www.w3.org/2000/svg"
 width="1734.000000pt" height="403.000000pt" viewBox="0 0 1734.000000 403.000000"
 preserveAspectRatio="xMidYMid meet">

<g transform="translate(0.000000,403.000000) scale(0.100000,-0.100000)"
fill="#000000" stroke="none">
<path d="M14875 4014 c-221 -30 -423 -91 -620 -189 -581 -288 -974 -809 -1097
-1453 -20 -101 -23 -150 -23 -357 0 -207 3 -256 23 -357 106 -557 412 -1020
882 -1332 103 -69 314 -174 430 -214 722 -251 1514 -79 2063 447 179 172 304
344 418 576 104 214 163 413 190 644 17 150 7 456 -20 598 -58 306 -181 592
-362 836 -326 441 -818 731 -1357 801 -148 19 -388 19 -527 0z m-142 -1030
c141 -36 281 -135 329 -232 l23 -47 2 -594 c2 -326 1 -597 -2 -601 -3 -4 -19
5 -37 22 -39 37 -126 81 -199 102 -187 53 -457 48 -593 -13 -25 -10 -47 -17
-50 -13 -3 3 -6 296 -6 651 0 624 1 647 19 658 44 27 151 66 216 79 82 16 211
11 298 -12z m1158 1 c34 -9 90 -30 125 -46 l64 -30 0 -648 c0 -356 -2 -650 -5
-653 -3 -3 -31 5 -63 17 -87 35 -192 48 -343 42 -195 -7 -347 -53 -432 -131
l-37 -33 -6 32 c-3 17 -4 288 -2 601 l3 569 23 46 c45 91 186 195 312 229 119
33 247 34 361 5z m-1717 -1425 c2 0 28 11 57 25 87 39 167 56 293 61 123 4
273 -13 319 -37 9 -5 17 -7 17 -3 0 3 7 1 15 -6 8 -7 15 -9 15 -6 0 18 154
-84 169 -112 8 -15 -1 -13 -47 10 -155 76 -429 98 -651 52 -96 -20 -147 -40
-193 -75 -20 -16 -39 -29 -43 -29 -3 0 -4 301 -3 669 3 653 3 669 23 691 l20
22 3 -631 c1 -347 4 -631 6 -631z m1984 550 c1 -373 -1 -670 -6 -670 -5 0 -17
8 -26 19 -25 28 -121 67 -206 85 -224 45 -497 24 -652 -52 -46 -23 -55 -25
-47 -10 15 28 169 130 169 112 0 -3 7 -1 15 6 8 7 15 10 15 7 0 -4 17 0 38 7
52 19 117 27 247 31 152 5 235 -12 393 -82 9 -4 12 125 12 628 l0 633 23 -22
22 -23 3 -669z m-2106 -67 l3 -718 475 -3 475 -2 20 -37 c15 -27 33 -43 68
-57 47 -20 47 -20 95 0 34 14 52 30 67 57 l20 37 478 0 477 0 0 720 0 720 34
0 c69 0 66 38 66 -773 l0 -728 -25 -24 -24 -25 -499 0 c-453 0 -501 -2 -513
-17 -21 -24 -89 -53 -129 -53 -40 0 -108 29 -129 53 -12 15 -60 17 -514 17
-500 0 -501 0 -524 22 l-23 21 0 732 c0 814 -3 775 66 775 l34 0 2 -717z"/>
<path d="M3164 3309 c-42 -12 -91 -69 -100 -115 -11 -60 2 -150 26 -185 35
-49 73 -59 217 -59 102 0 135 4 162 18 58 29 75 63 79 152 4 67 1 84 -19 119
-36 65 -81 81 -220 80 -63 0 -128 -5 -145 -10z"/>
<path d="M10414 3309 c-42 -12 -91 -69 -100 -115 -11 -60 2 -150 26 -185 35
-49 73 -59 217 -59 102 0 135 4 162 18 58 29 75 63 79 152 4 67 1 84 -19 119
-36 65 -81 81 -220 80 -63 0 -128 -5 -145 -10z"/>
<path d="M260 3277 c-19 -7 -44 -27 -57 -46 l-23 -34 0 -901 c0 -886 0 -902
20 -934 32 -53 69 -62 240 -62 171 0 208 9 240 62 19 31 20 50 20 340 l0 307
508 3 c462 3 510 5 539 21 52 28 63 61 63 185 0 97 -2 112 -22 137 -43 55 -45
55 -588 55 l-500 0 0 240 0 239 623 3 c693 3 653 -1 698 71 17 28 19 46 17
139 -3 98 -5 109 -28 134 -52 56 -22 54 -902 53 -603 0 -822 -3 -848 -12z"/>
<path d="M2290 3277 c-13 -7 -30 -24 -37 -37 -18 -35 -19 -1860 -1 -1893 23
-44 35 -46 229 -47 172 0 187 1 207 20 12 11 24 31 27 43 3 12 4 439 3 949
l-3 927 -23 23 c-21 22 -30 23 -200 26 -129 2 -184 -1 -202 -11z"/>
<path d="M3940 3277 c-51 -26 -50 0 -50 -954 l0 -893 48 -24 c165 -83 530
-145 778 -132 536 29 793 283 794 782 0 274 -70 469 -219 607 -192 177 -481
227 -817 142 -54 -14 -100 -25 -101 -25 -1 0 -3 103 -5 230 -4 298 15 274
-226 278 -129 2 -184 -1 -202 -11z m905 -799 c59 -31 95 -67 125 -126 66 -133
66 -451 -1 -588 -29 -62 -100 -121 -168 -140 -44 -13 -85 -15 -210 -11 -86 3
-169 9 -186 14 l-30 9 -3 411 -2 411 62 16 c114 30 152 35 258 32 90 -2 112
-6 155 -28z"/>
<path d="M6707 2840 c-130 -16 -262 -67 -397 -154 l-55 -35 -3 42 c-4 64 -10
85 -34 107 -20 19 -35 20 -209 20 l-187 0 -26 -31 -26 -31 0 -694 c0 -715 0
-721 39 -751 22 -17 380 -17 402 0 38 29 39 45 39 510 l0 455 67 61 c36 34 96
76 132 94 l65 32 199 5 c251 6 237 -5 237 186 0 125 -1 134 -24 160 -20 24
-31 28 -87 30 -35 1 -95 -1 -132 -6z"/>
<path d="M7755 2844 c-155 -22 -276 -59 -361 -110 -205 -124 -313 -311 -333
-580 -21 -294 43 -508 199 -664 171 -172 415 -239 763 -211 280 23 423 73 521
182 77 85 102 221 50 270 -24 23 -32 24 -152 24 -170 0 -188 -5 -261 -70 -82
-73 -116 -86 -238 -92 -123 -7 -221 14 -282 59 -49 36 -99 130 -108 206 l-6
52 521 0 c336 0 530 4 548 10 48 18 53 36 54 162 0 238 -55 399 -186 537 -97
103 -229 173 -388 207 -70 15 -283 26 -341 18z m232 -329 c101 -30 171 -121
191 -248 l9 -57 -324 0 -323 0 6 43 c4 23 15 67 25 97 23 70 98 143 167 164
62 19 186 20 249 1z"/>
<path d="M9867 2840 c-130 -16 -262 -67 -397 -154 l-55 -35 -3 42 c-4 64 -10
85 -34 107 -20 19 -35 20 -209 20 l-187 0 -26 -31 -26 -31 0 -694 c0 -715 0
-721 39 -751 22 -17 380 -17 402 0 38 29 39 45 39 510 l0 455 67 61 c36 34 96
76 132 94 l65 32 199 5 c251 6 237 -5 237 186 0 125 -1 134 -24 160 -20 24
-31 28 -87 30 -35 1 -95 -1 -132 -6z"/>
<path d="M11735 2839 c-279 -21 -467 -106 -536 -241 -26 -50 -37 -164 -20
-196 18 -33 81 -45 211 -39 131 6 168 18 220 72 19 20 58 49 85 63 47 25 58
27 180 26 101 0 139 -4 168 -18 76 -34 114 -97 124 -203 l6 -63 -291 0 c-361
0 -461 -17 -607 -100 -147 -84 -217 -209 -216 -385 0 -231 144 -389 417 -457
70 -17 119 -22 229 -22 186 0 309 30 439 109 32 19 60 35 61 35 2 0 6 -18 10
-40 4 -25 16 -47 32 -60 23 -18 41 -20 190 -20 161 0 164 0 188 25 l25 24 0
488 c0 544 -3 574 -65 699 -46 95 -127 170 -238 223 -171 81 -333 102 -612 80z
m435 -1019 l0 -110 -68 -34 c-118 -59 -202 -80 -333 -80 -109 -1 -118 1 -156
26 -54 35 -77 85 -71 155 4 44 11 60 39 89 54 56 93 63 357 63 l232 1 0 -110z"/>
<path d="M3125 2779 c-16 -5 -36 -16 -42 -26 -10 -13 -13 -171 -13 -710 l0
-694 25 -24 c24 -25 26 -25 209 -25 181 0 185 1 213 24 l28 24 3 676 c3 760 5
736 -65 755 -46 13 -315 13 -358 0z"/>
<path d="M10375 2779 c-16 -5 -36 -16 -42 -26 -10 -13 -13 -171 -13 -710 l0
-694 25 -24 c24 -25 26 -25 209 -25 181 0 185 1 213 24 l28 24 3 676 c3 760 5
736 -65 755 -46 13 -315 13 -358 0z"/>
</g>
</svg>
